# xmcd CD database file
#
# Track frame offsets:
#	150
#	3242
#	21187
#	35610
#	48340
#	66167
#	82390
#	90657
#	112410
#	126485
#	169302
#
# Disc length: 2944 seconds
#
# Revision: 0
# Processed by: cddbd v1.5.1PL2 Copyright (c) Steve Scherf et al.
# Submitted via: CDex 1.51
#
DISCID=9c0b7e0b
DTITLE=リリックス - LOVE IS ALL
DYEAR=2005
DGENRE=ロック (一般)
TTITLE0=Opening
TTITLE1=赤い花びら
TTITLE2=光の波声
TTITLE3=Debaser
TTITLE4=Smile Again
TTITLE5=笑美
TTITLE6=夜行バス
TTITLE7=あてもない日々へ
TTITLE8=ハレルヤ
TTITLE9=NO WANDER
TTITLE10=smile again (Video)
EXTD=YEAR: 2005
EXTT0=
EXTT1=
EXTT2=
EXTT3=
EXTT4=
EXTT5=
EXTT6=
EXTT7=
EXTT8=
EXTT9=
EXTT10=
PLAYORDER=
